<svg xmlns="http://www.w3.org/2000/svg" xmlns:xlink="http://www.w3.org/1999/xlink" width="1440" height="960"><g transform="translate(0 0)"><path d="M0 0h1440v960H0z" fill="#f2f2f2"/><path d="M1060 501.96h160V642.8h-160zM1060 541.96h160" stroke="#3d4752" stroke-width="2" fill="#fff"/><path d="M1084.96 625.47c.32 5.9-3.36 10.84-8.16 10.98-4.64 0-8.64-4.64-8.8-10.56v-.3" stroke="#3d4752" stroke-width="2" fill="#fff"/><path d="M1071.04 627.02c-.16-3.24 2.08-6.06 5.12-6.2 3.04-.14 5.76 2.4 5.92 5.78.32 3.23-2.08 6.05-5.12 6.2-3.04.13-5.76-2.4-5.92-5.78z" stroke="#3d4752" stroke-width="2" fill="#fff"/><use xlink:href="#a" transform="matrix(1,0,0,1,1060,501.9636363636364) translate(47.73095703125 26.98291015625)"/><use xlink:href="#b" transform="matrix(1,0,0,1,1060,541.9636363636364) translate(37.0126953125 57.48291015625)"/><path d="M1060 501.96h160v46.95h-160z" stroke="#3d4752" stroke-width="2" fill="#cdbbdc"/><use xlink:href="#a" transform="matrix(1,0,0,1,1065,506.9636363636364) translate(42.73095703125 25.48291015625)"/><path d="M781 503.14h160v140.82H781zM781 543.14h160" stroke="#3d4752" stroke-width="2" fill="#fff"/><path d="M805.96 626.64c.32 5.92-3.36 10.85-8.16 11-4.64 0-8.64-4.66-8.8-10.58v-.28" stroke="#3d4752" stroke-width="2" fill="#fff"/><path d="M792.04 628.2c-.16-3.25 2.08-6.06 5.12-6.2 3.04-.15 5.76 2.4 5.92 5.77.32 3.24-2.08 6.05-5.12 6.2-3.04.14-5.76-2.4-5.92-5.78z" stroke="#3d4752" stroke-width="2" fill="#fff"/><use xlink:href="#a" transform="matrix(1,0,0,1,781,503.1371900826447) translate(47.73095703125 26.98291015625)"/><use xlink:href="#b" transform="matrix(1,0,0,1,781,543.1371900826447) translate(37.0126953125 57.48291015625)"/><path d="M781 503.14h160v46.94H781z" stroke="#3d4752" stroke-width="2" fill="#cdbbdc"/><use xlink:href="#a" transform="matrix(1,0,0,1,786,508.1371900826447) translate(42.73095703125 25.48291015625)"/><path d="M501 503.14h160v140.82H501zM501 543.14h160" stroke="#3d4752" stroke-width="2" fill="#fff"/><path d="M525.96 626.64c.32 5.92-3.36 10.85-8.16 11-4.64 0-8.64-4.66-8.8-10.58v-.28" stroke="#3d4752" stroke-width="2" fill="#fff"/><path d="M512.04 628.2c-.16-3.25 2.08-6.06 5.12-6.2 3.04-.15 5.76 2.4 5.92 5.77.32 3.24-2.08 6.05-5.12 6.2-3.04.14-5.76-2.4-5.92-5.78z" stroke="#3d4752" stroke-width="2" fill="#fff"/><use xlink:href="#a" transform="matrix(1,0,0,1,501,503.1371900826447) translate(47.73095703125 26.98291015625)"/><use xlink:href="#b" transform="matrix(1,0,0,1,501,543.1371900826447) translate(37.0126953125 57.48291015625)"/><path d="M501 503.14h160v46.94H501z" stroke="#3d4752" stroke-width="2" fill="#cdbbdc"/><use xlink:href="#a" transform="matrix(1,0,0,1,506,508.1371900826447) translate(42.73095703125 25.48291015625)"/><path d="M220 503.14h160v140.82H220zM220 543.14h160" stroke="#3d4752" stroke-width="2" fill="#fff"/><path d="M244.96 626.64c.32 5.92-3.36 10.85-8.16 11-4.64 0-8.64-4.66-8.8-10.58v-.28" stroke="#3d4752" stroke-width="2" fill="#fff"/><path d="M231.04 628.2c-.16-3.25 2.08-6.06 5.12-6.2 3.04-.15 5.76 2.4 5.92 5.77.32 3.24-2.08 6.05-5.12 6.2-3.04.14-5.76-2.4-5.92-5.78z" stroke="#3d4752" stroke-width="2" fill="#fff"/><use xlink:href="#a" transform="matrix(1,0,0,1,220,503.1371900826447) translate(47.73095703125 26.98291015625)"/><use xlink:href="#b" transform="matrix(1,0,0,1,220,543.1371900826447) translate(37.0126953125 57.48291015625)"/><path d="M220 503.14h160v46.94H220z" stroke="#3d4752" stroke-width="2" fill="#cdbbdc"/><use xlink:href="#a" transform="matrix(1,0,0,1,225,508.1371900826447) translate(42.73095703125 25.48291015625)"/><path d="M81.33 216.28l52.8-36v36l52.8-36v36l54.4-36v120h-160z" stroke="#3d4752" stroke-width="2" fill="#fff"/><use xlink:href="#c" transform="matrix(1,0,0,1,91.33333333333303,216.28319559228623) translate(35.23046875 48.98291015625)"/><path d="M281.33 217.62l52.8-36v36l52.8-36v36l54.4-36v120h-160z" stroke="#3d4752" stroke-width="2" fill="#fff"/><use xlink:href="#c" transform="matrix(1,0,0,1,291.33333333333303,217.6165289256198) translate(35.23046875 48.98291015625)"/><path d="M1001.33 217.62l52.8-36v36l52.8-36v36l54.4-36v120h-160z" stroke="#3d4752" stroke-width="2" fill="#fff"/><use xlink:href="#d" transform="matrix(1,0,0,1,1011.333333333333,217.6165289256198) translate(28.796875 48.98291015625)"/><path d="M1201.33 217.62l52.8-36v36l52.8-36v36l54.4-36v120h-160z" stroke="#3d4752" stroke-width="2" fill="#fff"/><use xlink:href="#d" transform="matrix(1,0,0,1,1211.333333333333,217.6165289256198) translate(28.796875 48.98291015625)"/><path d="M242.67 662.96v120h120v-120zM242.67 662.96h120M242.67 702.96h120M242.67 742.96h120" stroke="#3d4752" stroke-width="2" fill="#cdbbdc"/><use xlink:href="#e" transform="matrix(1,0,0,1,254.66666666666652,662.9636363636364) translate(20.76708984375 26.98291015625)"/><use xlink:href="#f" transform="matrix(1,0,0,1,254.66666666666652,662.9636363636364) translate(64.94091796875 26.98291015625)"/><use xlink:href="#e" transform="matrix(1,0,0,1,254.66666666666652,702.9636363636364) translate(20.76708984375 26.98291015625)"/><use xlink:href="#g" transform="matrix(1,0,0,1,254.66666666666652,702.9636363636364) translate(64.94091796875 26.98291015625)"/><use xlink:href="#e" transform="matrix(1,0,0,1,254.66666666666652,742.9636363636364) translate(20.76708984375 26.98291015625)"/><use xlink:href="#h" transform="matrix(1,0,0,1,254.66666666666652,742.9636363636364) translate(64.94091796875 26.98291015625)"/><path d="M522.67 662.96v120h120v-120zM522.67 662.96h120M522.67 702.96h120M522.67 742.96h120" stroke="#3d4752" stroke-width="2" fill="#cdbbdc"/><use xlink:href="#e" transform="matrix(1,0,0,1,534.6666666666665,662.9636363636364) translate(20.76708984375 26.98291015625)"/><use xlink:href="#f" transform="matrix(1,0,0,1,534.6666666666665,662.9636363636364) translate(64.94091796875 26.98291015625)"/><use xlink:href="#e" transform="matrix(1,0,0,1,534.6666666666665,702.9636363636364) translate(20.76708984375 26.98291015625)"/><use xlink:href="#g" transform="matrix(1,0,0,1,534.6666666666665,702.9636363636364) translate(64.94091796875 26.98291015625)"/><use xlink:href="#e" transform="matrix(1,0,0,1,534.6666666666665,742.9636363636364) translate(20.76708984375 26.98291015625)"/><use xlink:href="#h" transform="matrix(1,0,0,1,534.6666666666665,742.9636363636364) translate(64.94091796875 26.98291015625)"/><path d="M802.67 662.96v120h120v-120zM802.67 662.96h120M802.67 702.96h120M802.67 742.96h120" stroke="#3d4752" stroke-width="2" fill="#cdbbdc"/><use xlink:href="#e" transform="matrix(1,0,0,1,814.6666666666665,662.9636363636364) translate(20.76708984375 26.98291015625)"/><use xlink:href="#f" transform="matrix(1,0,0,1,814.6666666666665,662.9636363636364) translate(64.94091796875 26.98291015625)"/><use xlink:href="#e" transform="matrix(1,0,0,1,814.6666666666665,702.9636363636364) translate(20.76708984375 26.98291015625)"/><use xlink:href="#g" transform="matrix(1,0,0,1,814.6666666666665,702.9636363636364) translate(64.94091796875 26.98291015625)"/><use xlink:href="#e" transform="matrix(1,0,0,1,814.6666666666665,742.9636363636364) translate(20.76708984375 26.98291015625)"/><use xlink:href="#h" transform="matrix(1,0,0,1,814.6666666666665,742.9636363636364) translate(64.94091796875 26.98291015625)"/><path d="M1082.67 662.96v120h120v-120zM1082.67 662.96h120M1082.67 702.96h120M1082.67 742.96h120" stroke="#3d4752" stroke-width="2" fill="#cdbbdc"/><use xlink:href="#e" transform="matrix(1,0,0,1,1094.6666666666665,662.9636363636364) translate(20.76708984375 26.98291015625)"/><use xlink:href="#f" transform="matrix(1,0,0,1,1094.6666666666665,662.9636363636364) translate(64.94091796875 26.98291015625)"/><use xlink:href="#e" transform="matrix(1,0,0,1,1094.6666666666665,702.9636363636364) translate(20.76708984375 26.98291015625)"/><use xlink:href="#g" transform="matrix(1,0,0,1,1094.6666666666665,702.9636363636364) translate(64.94091796875 26.98291015625)"/><use xlink:href="#e" transform="matrix(1,0,0,1,1094.6666666666665,742.9636363636364) translate(20.76708984375 26.98291015625)"/><use xlink:href="#h" transform="matrix(1,0,0,1,1094.6666666666665,742.9636363636364) translate(64.94091796875 26.98291015625)"/><path d="M155 522.96l-40 80h80z" stroke="#3d4752" stroke-width="2" fill="#fed98b"/><path d="M149.4 546.96h11.2m-5.6 0v16m-5.6 0h11.2" stroke="#3d4752" stroke-width="2" fill="none"/><use xlink:href="#i" transform="matrix(1,0,0,1,135,570.9636363636364) translate(20 21.4)"/><path d="M1190 382.96l-40 80h80z" stroke="#3d4752" stroke-width="2" fill="#fed98b"/><path d="M1184.4 406.96h11.2m-5.6 0v16m-5.6 0h11.2" stroke="#3d4752" stroke-width="2" fill="none"/><use xlink:href="#i" transform="matrix(1,0,0,1,1170,430.9636363636364) translate(20 21.4)"/><path d="M1240 382.96h69.96v49.98H1240zM1309.96 432.94H1360v-19.98h-9.96l-10.08-19.98h-30v39.96m10.08-34.98h15l7.44 15h-22.44v-15m-10.08 34.98z" stroke="#3d4752" stroke-width="2" fill="#cdbbdc"/><path d="M1309.96 432.94H1360v-19.98h-9.96l-10.08-19.98h-30z" fill="none"/><path d="M1273 432.94c0 5.52-4.44 10.02-9.96 10.02-5.52 0-10.08-4.5-10.08-10.02s4.56-9.96 10.08-9.96c5.52 0 9.96 4.44 9.96 9.96zM1339.96 432.94c0 5.52-4.44 10.02-9.96 10.02-5.52 0-9.96-4.5-9.96-10.02s4.44-9.96 9.96-9.96c5.52 0 9.96 4.44 9.96 9.96z" stroke="#3d4752" stroke-width="2" fill="#3d4752"/><use xlink:href="#j" transform="matrix(1,0,0,1,1250,382.9636363636364) translate(-6.311197916666671 29.172526041666664)"/><path d="M95 382.96h69.96v49.98H95zM164.96 432.94H215v-19.98h-9.96l-10.08-19.98h-30v39.96m10.08-34.98h15l7.44 15h-22.44v-15m-10.08 34.98z" stroke="#3d4752" stroke-width="2" fill="#cdbbdc"/><path d="M164.96 432.94H215v-19.98h-9.96l-10.08-19.98h-30z" fill="none"/><path d="M128 432.94c0 5.52-4.44 10.02-9.96 10.02-5.52 0-10.08-4.5-10.08-10.02s4.56-9.96 10.08-9.96c5.52 0 9.96 4.44 9.96 9.96zM194.96 432.94c0 5.52-4.44 10.02-9.96 10.02-5.52 0-9.96-4.5-9.96-10.02s4.44-9.96 9.96-9.96c5.52 0 9.96 4.44 9.96 9.96z" stroke="#3d4752" stroke-width="2" fill="#3d4752"/><use xlink:href="#j" transform="matrix(1,0,0,1,105,382.9636363636364) translate(-6.311197916666671 29.172526041666664)"/><path d="M301 382.96h69.96v49.98H301zM370.96 432.94H421v-19.98h-9.96l-10.08-19.98h-30v39.96m10.08-34.98h15l7.44 15h-22.44v-15m-10.08 34.98z" stroke="#3d4752" stroke-width="2" fill="#cdbbdc"/><path d="M370.96 432.94H421v-19.98h-9.96l-10.08-19.98h-30z" fill="none"/><path d="M334 432.94c0 5.52-4.44 10.02-9.96 10.02-5.52 0-10.08-4.5-10.08-10.02s4.56-9.96 10.08-9.96c5.52 0 9.96 4.44 9.96 9.96zM400.96 432.94c0 5.52-4.44 10.02-9.96 10.02-5.52 0-9.96-4.5-9.96-10.02s4.44-9.96 9.96-9.96c5.52 0 9.96 4.44 9.96 9.96z" stroke="#3d4752" stroke-width="2" fill="#3d4752"/><use xlink:href="#j" transform="matrix(1,0,0,1,311,382.9636363636364) translate(-6.311197916666671 29.172526041666664)"/><path d="M1020 382.96h69.96v49.98H1020zM1089.96 432.94H1140v-19.98h-9.96l-10.08-19.98h-30v39.96m10.08-34.98h15l7.44 15h-22.44v-15m-10.08 34.98z" stroke="#3d4752" stroke-width="2" fill="#cdbbdc"/><path d="M1089.96 432.94H1140v-19.98h-9.96l-10.08-19.98h-30z" fill="none"/><path d="M1053 432.94c0 5.52-4.44 10.02-9.96 10.02-5.52 0-10.08-4.5-10.08-10.02s4.56-9.96 10.08-9.96c5.52 0 9.96 4.44 9.96 9.96zM1119.96 432.94c0 5.52-4.44 10.02-9.96 10.02-5.52 0-9.96-4.5-9.96-10.02s4.44-9.96 9.96-9.96c5.52 0 9.96 4.44 9.96 9.96z" stroke="#3d4752" stroke-width="2" fill="#3d4752"/><use xlink:href="#j" transform="matrix(1,0,0,1,1030,382.9636363636364) translate(-6.311197916666671 29.172526041666664)"/><path d="M103.7 602.96H206v40.67H103.7z" fill="none"/><use xlink:href="#k" transform="matrix(1,0,0,1,103.70999999999992,602.9636363636364) translate(7.8973611111111115 26.68923611111111)"/><path d="M1230 501.96h120V549h-120z" fill="none"/><use xlink:href="#l" transform="matrix(1,0,0,1,1230,501.9636363636364) translate(5.01 31.00173611111111)"/><path d="M381.33 562.96h119" stroke="#3d4752" stroke-width="2" fill="none"/><path d="M500.33 562.96l-14.26 4.64v-9.27z" stroke="#3d4752" stroke-width="2" fill="#3d4752"/><path d="M440 522.96l-40 80h80z" stroke="#3d4752" stroke-width="2" fill="#fed98b"/><path d="M434.4 546.96h11.2m-5.6 0v16m-5.6 0h11.2" stroke="#3d4752" stroke-width="2" fill="none"/><use xlink:href="#i" transform="matrix(1,0,0,1,420,570.9636363636364) translate(20 21.4)"/><path d="M661.33 562.96h120" stroke="#3d4752" stroke-width="2" fill="none"/><path d="M781.33 562.96l-14.26 4.64v-9.27z" stroke="#3d4752" stroke-width="2" fill="#3d4752"/><path d="M720 522.96l-40 80h80z" stroke="#3d4752" stroke-width="2" fill="#fed98b"/><path d="M714.4 546.96h11.2m-5.6 0v16m-5.6 0h11.2" stroke="#3d4752" stroke-width="2" fill="none"/><use xlink:href="#i" transform="matrix(1,0,0,1,700,570.9636363636364) translate(20 21.4)"/><path d="M941.33 562.96h120" stroke="#3d4752" stroke-width="2" fill="none"/><path d="M1061.33 562.96l-14.26 4.64v-9.27z" stroke="#3d4752" stroke-width="2" fill="#3d4752"/><path d="M1000 522.96l-40 80h80z" stroke="#3d4752" stroke-width="2" fill="#fed98b"/><path d="M994.4 546.96h11.2m-5.6 0v16m-5.6 0h11.2" stroke="#3d4752" stroke-width="2" fill="none"/><use xlink:href="#i" transform="matrix(1,0,0,1,980,570.9636363636364) translate(20 21.4)"/><path d="M80 843.66h160v20h120v-20h160v20h120v-20h160v20h120v-20h160v20h119v-19.7h40.4" stroke="#3d4752" stroke-width="2" fill="none"/><path d="M1240 844.96h-.6v-2h.6z" fill="#3d4752"/><path d="M1240 743.96v120h120v-120zM1240 743.96h120M1240 783.96h120M1240 823.96h120" stroke="#3d4752" stroke-width="2" fill="#cdbbdc"/><use xlink:href="#m" transform="matrix(1,0,0,1,1252,743.9636363636364) translate(3.9404296875 26.98291015625)"/><use xlink:href="#n" transform="matrix(1,0,0,1,1252,743.9636363636364) translate(38.3935546875 26.98291015625)"/><use xlink:href="#o" transform="matrix(1,0,0,1,1252,743.9636363636364) translate(53.361328125 26.98291015625)"/><use xlink:href="#p" transform="matrix(1,0,0,1,1252,783.9636363636364) translate(16.86474609375 26.98291015625)"/><use xlink:href="#q" transform="matrix(1,0,0,1,1252,783.9636363636364) translate(42.92431640625 26.98291015625)"/><use xlink:href="#r" transform="matrix(1,0,0,1,1252,783.9636363636364) translate(54.20947265625 26.98291015625)"/><use xlink:href="#s" transform="matrix(1,0,0,1,1252,783.9636363636364) translate(68.84326171875 26.98291015625)"/><use xlink:href="#t" transform="matrix(1,0,0,1,1252,823.9636363636364) translate(14.66748046875 26.98291015625)"/><use xlink:href="#n" transform="matrix(1,0,0,1,1252,823.9636363636364) translate(51.54638671875 26.98291015625)"/><use xlink:href="#u" transform="matrix(1,0,0,1,1252,823.9636363636364) translate(66.51416015625 26.98291015625)"/><path d="M103.85 806.96h102.3v27h-102.3z" fill="none"/><use xlink:href="#v" transform="matrix(1,0,0,1,108.85499999999996,811.9636363636364) translate(19.6669921875 19.2392578125)"/><use xlink:href="#o" transform="matrix(1,0,0,1,108.85499999999996,811.9636363636364) translate(34.634765625 19.2392578125)"/><path d="M390 806.96h100v26.6H390z" fill="none"/><use xlink:href="#v" transform="matrix(1,0,0,1,395,811.9636363636364) translate(18.1669921875 19.2392578125)"/><use xlink:href="#o" transform="matrix(1,0,0,1,395,811.9636363636364) translate(33.134765625 19.2392578125)"/><path d="M249.96 836.96h100.08v27H249.96z" fill="none"/><use xlink:href="#v" transform="matrix(1,0,0,1,254.96375,841.9636363636364) translate(21.84423828125 19.2392578125)"/><use xlink:href="#w" transform="matrix(1,0,0,1,254.96375,841.9636363636364) translate(36.81201171875 19.2392578125)"/><path d="M529.88 835.96h102.25v28H529.88z" fill="none"/><use xlink:href="#v" transform="matrix(1,0,0,1,534.875,840.9636363636364) translate(22.84423828125 19.2392578125)"/><use xlink:href="#w" transform="matrix(1,0,0,1,534.875,840.9636363636364) translate(37.81201171875 19.2392578125)"/><path d="M811 836.96h100v27H811z" fill="none"/><use xlink:href="#v" transform="matrix(1,0,0,1,816,841.9636363636364) translate(21.34423828125 19.2392578125)"/><use xlink:href="#w" transform="matrix(1,0,0,1,816,841.9636363636364) translate(36.31201171875 19.2392578125)"/><path d="M1089.88 837.66h100v26.6h-100z" fill="none"/><use xlink:href="#v" transform="matrix(1,0,0,1,1094.875,842.6636363636364) translate(21.34423828125 19.2392578125)"/><use xlink:href="#w" transform="matrix(1,0,0,1,1094.875,842.6636363636364) translate(36.31201171875 19.2392578125)"/><path d="M669 806.36h100v26.6H669z" fill="none"/><use xlink:href="#v" transform="matrix(1,0,0,1,674,811.3636363636365) translate(18.1669921875 19.2392578125)"/><use xlink:href="#o" transform="matrix(1,0,0,1,674,811.3636363636365) translate(33.134765625 19.2392578125)"/><path d="M948 806.66h100v26.6H948z" fill="none"/><use xlink:href="#v" transform="matrix(1,0,0,1,953,811.6636363636364) translate(18.1669921875 19.2392578125)"/><use xlink:href="#o" transform="matrix(1,0,0,1,953,811.6636363636364) translate(33.134765625 19.2392578125)"/><path d="M639 60.62h160v131H639zM639 113.02h160" stroke="#3d4752" stroke-width="2" fill="#fff"/><use xlink:href="#x" transform="matrix(1,0,0,1,639,60.61652892561983) translate(0.5556640625 33.48291015625)"/><use xlink:href="#y" transform="matrix(1,0,0,1,639,60.61652892561983) translate(97.40234375 33.48291015625)"/><use xlink:href="#z" transform="matrix(1,0,0,1,639,113.01652892561984) translate(33.91455078125 34.2265625)"/><use xlink:href="#A" transform="matrix(1,0,0,1,639,113.01652892561984) translate(50.3720703125 58.7392578125)"/><path d="M639 60h160v53.2H639z" stroke="#3d4752" stroke-width="2" fill="#cdbbdc"/><use xlink:href="#B" transform="matrix(1,0,0,1,644,65) translate(20.23974609375 28.98291015625)"/><use xlink:href="#C" transform="matrix(1,0,0,1,644,65) translate(70.97900390625 28.98291015625)"/><path d="M1001.33 241.62l-131.33-80h60L800 89.16" stroke="#3d4752" stroke-width="2" fill="none"/><path d="M1001.33 242.8l-.52-.33.53-.85zM814.72 92.06l-4.52 8.1-10.2-11z" fill="#3d4752"/><path d="M816.26 91.35l-5.85 10.5-11.4-12.3v-1.6zM810 98.47l3.17-5.7-10.34-2.03z" fill="#3d4752"/><path d="M797.2 192.62l132.8 89h-70l160 131.34" stroke="#3d4752" stroke-width="2" fill="none"/><path d="M797.77 191.8l-1.1 1.65-2.5-1.67.1-.16h3.25zM1020 412.96l-13.97-5.47 5.88-7.17z" fill="#3d4752"/><path d="M1020 411.1v2.94l-15.6-6.12 7.62-9.3zm-12.32-4.03l9.82 3.84-5.7-8.87z" fill="#3d4752"/><path d="M743 192.62l87 149-50-20 81 181.52" stroke="#3d4752" stroke-width="2" fill="none"/><path d="M743.88 192.1l-1.73 1.02-.88-1.5h2.32zM861 503.14L850.95 492l8.47-3.78z" fill="#3d4752"/><path d="M862 503.14h-2.35l-10.36-11.5 10.97-4.9zm-9.38-10.8l7.06 7.84-1.1-10.5z" fill="#3d4752"/><path d="M699.12 192.62l-59.12 179-20-40-59.46 170.34" stroke="#3d4752" stroke-width="2" fill="none"/><path d="M700.07 192.93l-1.9-.63.23-.68h2.1zM569.62 490.02l-9.08 11.94.33-15z" fill="#3d4752"/><path d="M571.25 489.53l-10.34 13.6h-1.38l.38-17.56zm-9.64 9.38l6.4-8.4-6.16-2.14z" fill="#3d4752"/><path d="M638 192.62l-108 129-10-50-98 140.34" stroke="#3d4752" stroke-width="2" fill="none"/><path d="M639 191.62h1.14l-1.37 1.64-1.54-1.3 1.77-2.1zM433.97 402.92L422 411.96l4.37-14.35z" fill="#3d4752"/><path d="M435.67 402.9L421 413.96v-1h-.35L425.8 396zm-11.82 6.4l8.42-6.35-5.35-3.73z" fill="#3d4752"/><path d="M638 112.63l-88 69v-50l-107.67 84.93" stroke="#3d4752" stroke-width="2" fill="none"/><path d="M639 113.1l-.38.3-1.24-1.56 1.62-1.27zM456.4 211.36l-14.07 5.2 8.33-12.48z" fill="#3d4752"/><path d="M458.04 211.82l-16.7 6.17v-1.75l9.25-13.87zm-13.17 2.73l9.9-3.65-4.04-5.12z" fill="#3d4752"/><path d="M161.33 300.28L130 342.96l40-10-32.05 49" stroke="#3d4752" stroke-width="2" fill="none"/><path d="M162.14 300.87l-.8-.6h1.23zM149.64 372.56l-11.7 9.4 3.94-14.47z" fill="#3d4752"/><path d="M151.34 372.48l-13.03 10.48h-1.65l4.63-17.06zm-11.6 6.78l8.2-6.62-5.45-3.56z" fill="#3d4752"/><path d="M361.33 301.62L330 342.96l50-10-41.6 49" stroke="#3d4752" stroke-width="2" fill="none"/><path d="M362.13 302.22l-.8-.6h1.26zM351.17 374.1l-12.77 7.86 5.7-13.87z" fill="#3d4752"/><path d="M352.87 374.22l-14.18 8.74h-1.8l6.8-16.52zm-12.37 5.28l8.97-5.54-4.97-4.22z" fill="#3d4752"/><path d="M1062.24 381.96l17.76-39-30 10 22-50.34" stroke="#3d4752" stroke-width="2" fill="none"/><path d="M1063.15 382.38l-.27.58h-2.2l.65-1.4zM1070.54 317.54l-8.5-3.7 9.97-11.22z" fill="#3d4752"/><path d="M1071.4 319l-11-4.8 11.16-12.58h1.56zm-7.7-5.53l5.98 2.6 1.04-10.5z" fill="#3d4752"/><path d="M1278.8 381.96l21.2-39-40 20 28.44-60.34" stroke="#3d4752" stroke-width="2" fill="none"/><path d="M1279.68 382.44l-.28.52h-2.28l.8-1.47zM1286.55 317.5l-8.4-3.95 10.3-10.93z" fill="#3d4752"/><path d="M1287.37 319l-10.88-5.14 11.5-12.24h1.57zm-7.53-5.77l5.9 2.78 1.32-10.46z" fill="#3d4752"/><path d="M168.8 433.94L140 492.96l40-10-25 40" stroke="#3d4752" stroke-width="2" fill="none"/><path d="M169.7 434.38l-1.8-.87.27-.56h2.23zM166.5 513.32l-11.5 9.64 3.63-14.55z" fill="#3d4752"/><path d="M168.2 513.2l-12.74 10.68-.46-.92-1.12 2.25-.6.5 4.7-18.87zm-11.48 7.02l8.07-6.78-5.53-3.45z" fill="#3d4752"/><path d="M1095.2 500.96l14.8-28h-40l19-39.02" stroke="#3d4752" stroke-width="2" fill="none"/><path d="M1096.07 501.43l-.28.53h-2.27l.77-1.46zM1086.92 448.8l-8.34-4.06 10.4-10.8z" fill="#3d4752"/><path d="M1087.72 450.3l-10.8-5.26 11.65-12.1h1.57zm-7.46-5.85l5.86 2.85 1.46-10.45z" fill="#3d4752"/><defs><path fill="#3d4752" d="M1128-1036c0 321-241 464-585 461H371V0H201v-1462h379c365 0 548 142 548 426zm-176 8c0-218-150-286-391-287H371v594h153c270-3 428-62 428-307" id="D"/><path fill="#3d4752" d="M340-893c80-153 237-262 467-211l-23 154c-45-10-85-15-120-15-184-3-322 182-322 377V0H176v-1096h137l19 203h8" id="E"/><path fill="#3d4752" d="M621-1116c316 0 501 239 501 567 0 339-180 575-508 569S119-212 115-549c-4-339 178-567 506-567zm-5 141c-239 0-329 168-329 426 0 255 93 430 331 430s332-174 332-430-95-426-334-426" id="F"/><path fill="#3d4752" d="M287-543c-1 247 91 418 323 418 91 0 185-20 281-59v147C818 1 725 20 614 20c-329 0-499-221-499-561 0-349 172-575 510-575 96 0 221 26 282 57l-51 141c-61-25-157-50-235-51-223 0-334 142-334 426" id="G"/><path fill="#3d4752" d="M995-51C878-2 799 19 639 20c-329 2-524-221-524-559 0-326 172-577 481-577 278 0 451 210 446 493v105H287c4 242 121 392 358 393 118 0 235-25 350-74v148zM864-653c2-195-85-324-270-324-190 0-288 139-303 324h573" id="H"/><path fill="#3d4752" d="M502-977c-130 0-238 32-238 139 0 75 39 101 95 134 33 19 97 46 192 81 130 48 217 95 263 143s69 108 69 181C883-73 695 20 449 20 304 20 190-3 109-49v-154c91 47 216 86 344 86 149 0 270-36 270-168 0-43-21-76-55-109-56-55-367-158-434-208-74-55-128-109-128-225 0-327 490-342 754-217l-59 135c-110-45-210-68-299-68" id="I"/><g id="a"><use transform="matrix(0.0087890625,0,0,0.0087890625,0,0)" xlink:href="#D"/><use transform="matrix(0.0087890625,0,0,0.0087890625,10.8369140625,0)" xlink:href="#E"/><use transform="matrix(0.0087890625,0,0,0.0087890625,17.82421875,0)" xlink:href="#F"/><use transform="matrix(0.0087890625,0,0,0.0087890625,28.6962890625,0)" xlink:href="#G"/><use transform="matrix(0.0087890625,0,0,0.0087890625,37.265625,0)" xlink:href="#H"/><use transform="matrix(0.0087890625,0,0,0.0087890625,47.3642578125,0)" xlink:href="#I"/><use transform="matrix(0.0087890625,0,0,0.0087890625,55.951171875,0)" xlink:href="#I"/></g><path fill="#3d4752" d="M602-1462c329 0 526 109 526 413 0 193-98 324-294 392L1231 0h-201L676-608H371V0H201v-1462h401zm350 422c0-215-129-271-360-273H371v559h233c223 0 348-78 348-286" id="J"/><path fill="#3d4752" d="M563 20c-271 0-399-123-399-399v-717h168v711c1 177 76 266 252 266 250 0 331-135 331-401v-576h166V0H944l-24-147h-9C848-44 724 20 563 20" id="K"/><g id="b"><use transform="matrix(0.0087890625,0,0,0.0087890625,0,0)" xlink:href="#J"/><use transform="matrix(0.0087890625,0,0,0.0087890625,11.126953125,0)" xlink:href="#H"/><use transform="matrix(0.0087890625,0,0,0.0087890625,21.2255859375,0)" xlink:href="#I"/><use transform="matrix(0.0087890625,0,0,0.0087890625,29.8125,0)" xlink:href="#F"/><use transform="matrix(0.0087890625,0,0,0.0087890625,40.6845703125,0)" xlink:href="#K"/><use transform="matrix(0.0087890625,0,0,0.0087890625,51.732421875,0)" xlink:href="#E"/><use transform="matrix(0.0087890625,0,0,0.0087890625,58.7197265625,0)" xlink:href="#G"/><use transform="matrix(0.0087890625,0,0,0.0087890625,67.2890625,0)" xlink:href="#H"/><use transform="matrix(0.0087890625,0,0,0.0087890625,77.3876953125,0)" xlink:href="#I"/></g><path fill="#3d4752" d="M584-1331c-162 0-287 69-287 219 0 118 43 164 123 214 44 28 112 56 203 89 153 55 259 113 317 176s86 144 86 244c-1 276-228 409-520 409-173 0-307-22-400-67v-164c109 46 257 81 406 82 199 1 342-68 342-244 0-120-47-164-132-214-47-28-121-58-218-93-136-49-234-106-292-173s-87-154-87-261c-1-239 209-369 463-369 145 0 279 27 401 80l-53 148c-121-51-238-76-352-76" id="L"/><path fill="#3d4752" d="M1141-549c0 329-147 569-455 569-159 0-273-61-344-161h-12c23 199 7 418 12 633H176v-1588h135l23 150h8c77-108 175-170 344-170 311 0 455 237 455 567zm-172-2c0-242-88-424-307-424-256 0-323 154-320 426 3 280 68 430 324 430 213 0 303-196 303-432" id="M"/><path fill="#3d4752" d="M342 0H176v-1556h166V0" id="N"/><path fill="#3d4752" d="M342 0H176v-1096h166V0zm-82-1282c-61 0-98-43-98-111 0-69 36-110 98-110 59 0 98 43 98 110s-39 111-98 111" id="O"/><g id="c"><use transform="matrix(0.0087890625,0,0,0.0087890625,0,0)" xlink:href="#L"/><use transform="matrix(0.0087890625,0,0,0.0087890625,9.87890625,0)" xlink:href="#K"/><use transform="matrix(0.0087890625,0,0,0.0087890625,20.9267578125,0)" xlink:href="#M"/><use transform="matrix(0.0087890625,0,0,0.0087890625,31.95703125,0)" xlink:href="#M"/><use transform="matrix(0.0087890625,0,0,0.0087890625,42.9873046875,0)" xlink:href="#N"/><use transform="matrix(0.0087890625,0,0,0.0087890625,47.5400390625,0)" xlink:href="#O"/><use transform="matrix(0.0087890625,0,0,0.0087890625,52.0927734375,0)" xlink:href="#H"/><use transform="matrix(0.0087890625,0,0,0.0087890625,62.19140625,0)" xlink:href="#E"/></g><path fill="#3d4752" d="M125-733c6-459 248-750 704-750 153 0 287 28 402 84l-72 146c-111-52-221-78-332-78-334-1-520 251-520 600 0 361 171 600 518 600 102 0 218-18 349-55v149C1073 1 948 20 799 20c-445 1-680-294-674-753" id="P"/><path fill="#3d4752" d="M354-322c-2 123 60 204 176 205 51 1 114-10 150-20v127C647 7 557 20 506 20 294 20 188-92 188-315v-652H31v-80l157-69 70-234h96v254h318v129H354v645" id="Q"/><path fill="#3d4752" d="M1368-1116c259 2 372 131 371 401V0h-166v-713c0-168-66-262-230-262-221 0-303 131-303 363V0H874v-713c-1-169-66-262-231-262-235 0-301 142-301 400V0H176v-1096h135l27 150h8c56-99 174-170 324-170 171 0 283 62 336 186h8c60-108 189-187 354-186" id="R"/><g id="d"><use transform="matrix(0.0087890625,0,0,0.0087890625,0,0)" xlink:href="#P"/><use transform="matrix(0.0087890625,0,0,0.0087890625,11.35546875,0)" xlink:href="#K"/><use transform="matrix(0.0087890625,0,0,0.0087890625,22.4033203125,0)" xlink:href="#I"/><use transform="matrix(0.0087890625,0,0,0.0087890625,30.990234375,0)" xlink:href="#Q"/><use transform="matrix(0.0087890625,0,0,0.0087890625,37.3447265625,0)" xlink:href="#F"/><use transform="matrix(0.0087890625,0,0,0.0087890625,48.216796875,0)" xlink:href="#R"/><use transform="matrix(0.0087890625,0,0,0.0087890625,64.9599609375,0)" xlink:href="#H"/><use transform="matrix(0.0087890625,0,0,0.0087890625,75.05859375,0)" xlink:href="#E"/></g><path fill="#3d4752" d="M649-1462c450-4 719 268 719 717 0 484-276 748-762 745H201v-1462h448zM578-147c400 1 610-197 610-592 1-379-192-576-570-576H371v1168h207" id="S"/><path fill="#3d4752" d="M588-1114c260 0 384 106 385 366V0H850l-33-156h-8C708-34 639 17 442 20 231 23 94-94 94-303c0-221 177-337 531-348l186-6c11-203-40-320-233-320-91 0-195 28-310 84l-51-127c97-53 229-94 371-94zM268-301c-1 123 81 184 207 184 203 0 334-120 332-323v-99c-257 14-539-7-539 238" id="T"/><g id="e"><use transform="matrix(0.0087890625,0,0,0.0087890625,0,0)" xlink:href="#S"/><use transform="matrix(0.0087890625,0,0,0.0087890625,13.1220703125,0)" xlink:href="#T"/><use transform="matrix(0.0087890625,0,0,0.0087890625,23.1328125,0)" xlink:href="#Q"/><use transform="matrix(0.0087890625,0,0,0.0087890625,29.4873046875,0)" xlink:href="#T"/></g><path fill="#3d4752" d="M715 0H553c4-427-9-874 8-1288-79 77-94 81-285 239l-88-114 387-299h140V0" id="U"/><use transform="matrix(0.0087890625,0,0,0.0087890625,0,0)" xlink:href="#U" id="f"/><path fill="#3d4752" d="M559-1483c258 0 441 142 440 389 0 93-26 184-78 275-109 192-433 475-612 657v8h752V0H100v-143c177-182 479-462 617-641 67-87 110-168 112-303 2-158-106-258-268-254-165 4-240 52-354 139l-88-113c135-112 281-168 440-168" id="V"/><use transform="matrix(0.0087890625,0,0,0.0087890625,0,0)" xlink:href="#V" id="g"/><path fill="#3d4752" d="M557-1483c261-2 449 121 449 365 0 202-125 312-301 348v8c212 25 346 130 346 348 0 303-232 437-557 434C328 19 210-2 94-59v-158c108 55 257 96 406 96 253 0 379-99 379-297 0-177-139-266-418-266H317v-143h146c207 3 370-92 371-285 1-150-117-233-273-229-171 4-249 44-375 122l-84-112c109-87 268-150 455-152" id="W"/><use transform="matrix(0.0087890625,0,0,0.0087890625,0,0)" xlink:href="#W" id="h"/><path fill="#3d4752" d="M371 0H201v-1462h815v151H371v535h606v151H371V0" id="X"/><path fill="#3d4752" d="M287-543c0 246 78 424 303 424 259 0 323-148 323-426 0-279-71-432-325-432-220 0-301 191-301 434zm-172-2c0-328 147-571 454-571 150 0 265 57 346 170h9l24-150h131V492H913c5-208-11-450 11-639h-13C834-36 719 20 565 20c-305 0-450-240-450-565" id="Y"/><path fill="#3d4752" d="M694-1116c270 0 399 125 398 401V0H926v-709c-1-177-76-266-252-266-250 0-332 133-332 400V0H176v-1096h135l27 150h8c62-101 190-170 348-170" id="Z"/><path fill="#3d4752" d="M526-162c88-293 120-356 326-934h178L559 152c-47 123-102 209-163 262-93 80-237 94-380 61V342c184 39 305-9 367-180L444 6 2-1096h178c103 283 263 645 338 934h8" id="aa"/><g id="j"><use transform="matrix(0.006510416666666667,0,0,0.006510416666666667,0,0)" xlink:href="#X"/><use transform="matrix(0.006510416666666667,0,0,0.006510416666666667,6.881510416666667,0)" xlink:href="#E"/><use transform="matrix(0.006510416666666667,0,0,0.006510416666666667,12.057291666666668,0)" xlink:href="#H"/><use transform="matrix(0.006510416666666667,0,0,0.006510416666666667,19.537760416666668,0)" xlink:href="#Y"/><use transform="matrix(0.006510416666666667,0,0,0.006510416666666667,27.708333333333336,0)" xlink:href="#K"/><use transform="matrix(0.006510416666666667,0,0,0.006510416666666667,35.891927083333336,0)" xlink:href="#H"/><use transform="matrix(0.006510416666666667,0,0,0.006510416666666667,43.372395833333336,0)" xlink:href="#Z"/><use transform="matrix(0.006510416666666667,0,0,0.006510416666666667,51.555989583333336,0)" xlink:href="#G"/><use transform="matrix(0.006510416666666667,0,0,0.006510416666666667,57.903645833333336,0)" xlink:href="#aa"/></g><path fill="#3d4752" d="M125-741c0-247 161-377 414-375 57 0 109 7 155 20h379v105l-203 24c37 48 72 129 72 219 0 255-227 390-504 345-71 37-106 84-106 141 0 78 66 88 164 88h194c219-1 369 87 369 293 0 121-49 213-146 277s-239 96-426 96c-250 0-448-83-448-306C39 36 147-58 283-86c-52-23-102-79-99-152 4-104 57-143 133-192-107-42-192-164-192-311zM438-25c-143-1-242 70-239 209s131 181 290 181c139 0 242-21 309-63s101-98 101-169c0-147-88-158-262-158H438zm94-970c-158 0-243 88-243 250 0 153 93 233 246 233 162 0 243-79 243-236 0-165-82-247-246-247" id="ab"/><g id="k"><use transform="matrix(0.008680555555555556,0,0,0.008680555555555556,0,0)" xlink:href="#J"/><use transform="matrix(0.008680555555555556,0,0,0.008680555555555556,10.989583333333334,0)" xlink:href="#H"/><use transform="matrix(0.008680555555555556,0,0,0.008680555555555556,20.963541666666668,0)" xlink:href="#G"/><use transform="matrix(0.008680555555555556,0,0,0.008680555555555556,29.427083333333336,0)" xlink:href="#H"/><use transform="matrix(0.008680555555555556,0,0,0.008680555555555556,39.40104166666667,0)" xlink:href="#O"/><use transform="matrix(0.008680555555555556,0,0,0.008680555555555556,43.89756944444444,0)" xlink:href="#M"/><use transform="matrix(0.008680555555555556,0,0,0.008680555555555556,54.79166666666667,0)" xlink:href="#Q"/><use transform="matrix(0.008680555555555556,0,0,0.008680555555555556,61.067708333333336,0)" xlink:href="#O"/><use transform="matrix(0.008680555555555556,0,0,0.008680555555555556,65.56423611111111,0)" xlink:href="#Z"/><use transform="matrix(0.008680555555555556,0,0,0.008680555555555556,76.47569444444444,0)" xlink:href="#ab"/></g><path fill="#3d4752" d="M690-1114c271 2 402 123 402 399V0H926v-709c-1-177-76-266-252-266-251 0-332 135-332 402V0H176v-1556h166c-4 200 8 426-8 612h10c61-100 187-171 346-170" id="ac"/><g id="l"><use transform="matrix(0.008680555555555556,0,0,0.008680555555555556,0,0)" xlink:href="#L"/><use transform="matrix(0.008680555555555556,0,0,0.008680555555555556,9.756944444444445,0)" xlink:href="#ac"/><use transform="matrix(0.008680555555555556,0,0,0.008680555555555556,20.66840277777778,0)" xlink:href="#O"/><use transform="matrix(0.008680555555555556,0,0,0.008680555555555556,25.164930555555557,0)" xlink:href="#M"/><use transform="matrix(0.008680555555555556,0,0,0.008680555555555556,36.05902777777778,0)" xlink:href="#M"/><use transform="matrix(0.008680555555555556,0,0,0.008680555555555556,46.953125,0)" xlink:href="#O"/><use transform="matrix(0.008680555555555556,0,0,0.008680555555555556,51.44965277777778,0)" xlink:href="#Z"/><use transform="matrix(0.008680555555555556,0,0,0.008680555555555556,62.361111111111114,0)" xlink:href="#ab"/></g><path fill="#3d4752" d="M201 0v-1462h170v1308h645V0H201" id="ad"/><path fill="#3d4752" d="M651 0H481v-1311H18v-151h1096v151H651V0" id="ae"/><g id="m"><use transform="matrix(0.0087890625,0,0,0.0087890625,0,0)" xlink:href="#D"/><use transform="matrix(0.0087890625,0,0,0.0087890625,10.8369140625,0)" xlink:href="#ad"/><use transform="matrix(0.0087890625,0,0,0.0087890625,19.8193359375,0)" xlink:href="#ae"/></g><path fill="#3d4752" d="M119-858v-137h930v137H119zm0 409v-137h930v137H119" id="af"/><use transform="matrix(0.0087890625,0,0,0.0087890625,0,0)" xlink:href="#af" id="n"/><path fill="#3d4752" d="M115-545c0-330 146-571 454-571 149 0 263 54 342 162h13c-20-185-8-401-11-602h166V0H944l-22-147h-9C836-36 722 20 569 20c-309 0-454-234-454-565zm172 2c0 249 78 424 303 424 257 0 327-150 323-426-4-282-68-432-325-432-220 0-301 191-301 434" id="ag"/><g id="o"><use transform="matrix(0.0087890625,0,0,0.0087890625,0,0)" xlink:href="#ag"/><use transform="matrix(0.0087890625,0,0,0.0087890625,11.0302734375,0)" xlink:href="#T"/><use transform="matrix(0.0087890625,0,0,0.0087890625,21.041015625,0)" xlink:href="#aa"/><use transform="matrix(0.0087890625,0,0,0.0087890625,30.111328125,0)" xlink:href="#I"/></g><path fill="#3d4752" d="M1036-1462h183L692 0H524L0-1462h180l336 946c39 109 69 214 92 317 24-108 55-216 94-323" id="ah"/><path fill="#3d4752" d="M1120 0L938-465H352L172 0H0l578-1468h143L1296 0h-176zM885-618c-81-228-168-420-238-664-57 230-159 449-235 664h473" id="ai"/><g id="p"><use transform="matrix(0.0087890625,0,0,0.0087890625,0,0)" xlink:href="#ah"/><use transform="matrix(0.0087890625,0,0,0.0087890625,9.9931640625,0)" xlink:href="#ai"/></g><path fill="#3d4752" d="M731-1462L186 0H20l545-1462h166" id="aj"/><use transform="matrix(0.0087890625,0,0,0.0087890625,0,0)" xlink:href="#aj" id="q"/><use transform="matrix(0.0087890625,0,0,0.0087890625,0,0)" xlink:href="#ae" id="r"/><use transform="matrix(0.0087890625,0,0,0.0087890625,0,0)" xlink:href="#af" id="s"/><path fill="#3d4752" d="M1016 0H201v-1462h815v151H371v471h606v150H371v538h645V0" id="ak"/><g id="t"><use transform="matrix(0.0087890625,0,0,0.0087890625,0,0)" xlink:href="#D"/><use transform="matrix(0.0087890625,0,0,0.0087890625,10.8369140625,0)" xlink:href="#P"/><use transform="matrix(0.0087890625,0,0,0.0087890625,22.1923828125,0)" xlink:href="#ak"/></g><path fill="#3d4752" d="M279-1280c-47 96-47 413 0 509 27 56 65 85 120 85 109 0 164-113 164-340 0-225-55-338-164-338-55 0-93 29-120 84zm343-84c101 138 100 546 2 682-54 75-126 117-225 117-93 0-161-43-217-119-99-136-100-548-4-684 53-74 124-115 221-115s167 42 223 119zm537 670c-42 96-42 414 0 510 48 110 194 107 245 0 45-95 46-414 0-510-50-105-197-108-245 0zm343-86c102 136 100 548 2 684-54 75-125 116-224 116-95 0-163-42-218-119-98-136-98-548-2-683 53-74 123-115 220-115 95 0 165 42 222 117zm-179-682L512 0H365l811-1462h147" id="al"/><use transform="matrix(0.0087890625,0,0,0.0087890625,0,0)" xlink:href="#al" id="u"/><path fill="#3d4752" d="M1069-733c0 253-39 441-119 566S748 20 584 20c-157 0-277-64-359-192S102-486 102-733c0-255 40-444 119-567s200-185 363-185c159 0 280 64 362 193s123 315 123 559zm-724-463c-95 160-94 768 0 928 55 94 130 145 239 145 111 0 185-52 240-147 94-164 94-761 0-924-55-95-129-147-240-147-109 0-184 52-239 145" id="am"/><use transform="matrix(0.0087890625,0,0,0.0087890625,0,0)" xlink:href="#am" id="v"/><g id="w"><use transform="matrix(0.0087890625,0,0,0.0087890625,0,0)" xlink:href="#R"/><use transform="matrix(0.0087890625,0,0,0.0087890625,16.7431640625,0)" xlink:href="#O"/><use transform="matrix(0.0087890625,0,0,0.0087890625,21.2958984375,0)" xlink:href="#Z"/></g><g id="x"><use transform="matrix(0.0087890625,0,0,0.0087890625,0,0)" xlink:href="#D"/><use transform="matrix(0.0087890625,0,0,0.0087890625,10.8369140625,0)" xlink:href="#E"/><use transform="matrix(0.0087890625,0,0,0.0087890625,17.82421875,0)" xlink:href="#F"/><use transform="matrix(0.0087890625,0,0,0.0087890625,28.6962890625,0)" xlink:href="#ag"/><use transform="matrix(0.0087890625,0,0,0.0087890625,39.7265625,0)" xlink:href="#K"/><use transform="matrix(0.0087890625,0,0,0.0087890625,50.7744140625,0)" xlink:href="#G"/><use transform="matrix(0.0087890625,0,0,0.0087890625,59.34375,0)" xlink:href="#Q"/><use transform="matrix(0.0087890625,0,0,0.0087890625,65.6982421875,0)" xlink:href="#O"/><use transform="matrix(0.0087890625,0,0,0.0087890625,70.2509765625,0)" xlink:href="#F"/><use transform="matrix(0.0087890625,0,0,0.0087890625,81.123046875,0)" xlink:href="#Z"/></g><g id="y"><use transform="matrix(0.0087890625,0,0,0.0087890625,0,0)" xlink:href="#P"/><use transform="matrix(0.0087890625,0,0,0.0087890625,11.35546875,0)" xlink:href="#F"/><use transform="matrix(0.0087890625,0,0,0.0087890625,22.2275390625,0)" xlink:href="#Z"/><use transform="matrix(0.0087890625,0,0,0.0087890625,33.275390625,0)" xlink:href="#Q"/><use transform="matrix(0.0087890625,0,0,0.0087890625,39.6298828125,0)" xlink:href="#E"/><use transform="matrix(0.0087890625,0,0,0.0087890625,46.6171875,0)" xlink:href="#F"/><use transform="matrix(0.0087890625,0,0,0.0087890625,57.4892578125,0)" xlink:href="#N"/></g><g id="z"><use transform="matrix(0.0087890625,0,0,0.0087890625,0,0)" xlink:href="#D"/><use transform="matrix(0.0087890625,0,0,0.0087890625,10.8369140625,0)" xlink:href="#E"/><use transform="matrix(0.0087890625,0,0,0.0087890625,17.82421875,0)" xlink:href="#F"/><use transform="matrix(0.0087890625,0,0,0.0087890625,28.6962890625,0)" xlink:href="#ag"/><use transform="matrix(0.0087890625,0,0,0.0087890625,39.7265625,0)" xlink:href="#K"/><use transform="matrix(0.0087890625,0,0,0.0087890625,50.7744140625,0)" xlink:href="#G"/><use transform="matrix(0.0087890625,0,0,0.0087890625,59.34375,0)" xlink:href="#Q"/><use transform="matrix(0.0087890625,0,0,0.0087890625,65.6982421875,0)" xlink:href="#O"/><use transform="matrix(0.0087890625,0,0,0.0087890625,70.2509765625,0)" xlink:href="#F"/><use transform="matrix(0.0087890625,0,0,0.0087890625,81.123046875,0)" xlink:href="#Z"/></g><g id="A"><use transform="matrix(0.0087890625,0,0,0.0087890625,0,0)" xlink:href="#G"/><use transform="matrix(0.0087890625,0,0,0.0087890625,8.5693359375,0)" xlink:href="#F"/><use transform="matrix(0.0087890625,0,0,0.0087890625,19.44140625,0)" xlink:href="#Z"/><use transform="matrix(0.0087890625,0,0,0.0087890625,30.4892578125,0)" xlink:href="#Q"/><use transform="matrix(0.0087890625,0,0,0.0087890625,36.84375,0)" xlink:href="#E"/><use transform="matrix(0.0087890625,0,0,0.0087890625,43.8310546875,0)" xlink:href="#F"/><use transform="matrix(0.0087890625,0,0,0.0087890625,54.703125,0)" xlink:href="#N"/></g><g id="B"><use transform="matrix(0.0087890625,0,0,0.0087890625,0,0)" xlink:href="#ah"/><use transform="matrix(0.0087890625,0,0,0.0087890625,10.353515625,0)" xlink:href="#T"/><use transform="matrix(0.0087890625,0,0,0.0087890625,20.3642578125,0)" xlink:href="#N"/><use transform="matrix(0.0087890625,0,0,0.0087890625,24.9169921875,0)" xlink:href="#K"/><use transform="matrix(0.0087890625,0,0,0.0087890625,35.96484375,0)" xlink:href="#H"/></g><g id="C"><use transform="matrix(0.0087890625,0,0,0.0087890625,0,0)" xlink:href="#I"/><use transform="matrix(0.0087890625,0,0,0.0087890625,8.5869140625,0)" xlink:href="#Q"/><use transform="matrix(0.0087890625,0,0,0.0087890625,14.94140625,0)" xlink:href="#E"/><use transform="matrix(0.0087890625,0,0,0.0087890625,21.9287109375,0)" xlink:href="#H"/><use transform="matrix(0.0087890625,0,0,0.0087890625,32.02734375,0)" xlink:href="#T"/><use transform="matrix(0.0087890625,0,0,0.0087890625,42.0380859375,0)" xlink:href="#R"/></g></defs></g></svg>